<svg width="219" height="53" viewBox="0 0 219 53" fill="none" xmlns="http://www.w3.org/2000/svg">
<g clip-path="url(#clip0_1115_4736)">
<path d="M48.7801 0.291016H4.16041C2.02361 0.291016 0.291138 1.97055 0.291138 4.04161V48.8986C0.291138 50.9703 2.02361 52.6492 4.16041 52.6492H48.7801C50.9169 52.6492 52.6493 50.9703 52.6493 48.8986V4.04161C52.6493 1.97055 50.9169 0.291016 48.7801 0.291016ZM16.1627 44.1201H8.25424V20.4774H16.1627V44.1201ZM12.2084 17.2498H12.1573C9.50327 17.2498 7.78709 15.4342 7.78709 13.1653C7.78709 10.8453 9.55563 9.08021 12.2608 9.08021C14.9666 9.08021 16.6315 10.8453 16.6827 13.1653C16.6827 15.4342 14.966 17.2498 12.2084 17.2498ZM44.6787 44.1201H36.7714V31.4721C36.7714 28.2939 35.6265 26.1257 32.7649 26.1257C30.5798 26.1257 29.279 27.5877 28.7071 28.9996C28.4982 29.5046 28.4471 30.2102 28.4471 30.9171V44.1201H20.5386C20.5386 44.1201 20.6422 22.6963 20.5386 20.4774H28.4471V23.826C29.4977 22.2151 31.3768 19.923 35.5742 19.923C40.7774 19.923 44.6787 23.3019 44.6787 30.5639V44.1201Z" fill="#FEFCE8"/>
</g>
<path d="M109.067 0C102.05 0 92.4784 0.12193 90.5365 0.313722C88.3571 1.76654 84.0432 7.26639 84 8.69524V11.0926C84 14.1205 86.5524 16.7818 88.8634 16.7818C91.6317 16.7818 93.9417 14.2165 93.9417 11.191C93.9417 14.2165 96.1863 16.7818 98.9525 16.7818C101.742 16.7818 103.9 14.2189 103.9 11.191C103.9 14.2165 106.252 16.7818 109.042 16.7818H109.088C111.878 16.7818 114.23 14.2189 114.23 11.191C114.23 14.2165 116.409 16.7818 119.177 16.7818C121.946 16.7818 124.192 14.2189 124.192 11.191C124.192 14.2165 126.502 16.7818 129.271 16.7818C131.581 16.7818 134.13 14.1205 134.13 11.0926V8.69524C134.087 7.26639 129.773 1.76654 127.593 0.313722C120.814 0.0476108 116.084 0 109.067 0ZM103.782 16.1637C101.51 20.503 95.8018 20.555 93.575 16.1918C92.2156 18.8097 89.1386 19.8206 87.8224 19.3243C87.4383 23.877 87.1733 47.2496 89.9633 51.1694C98.1563 53.2911 120.211 53.2455 128.171 51.1694C131.396 47.5158 130.674 23.5461 130.311 19.3243C128.995 19.8206 125.918 18.8097 124.58 16.1918C122.329 20.555 116.622 20.503 114.352 16.1637C113.65 17.5781 112.017 19.4414 109.067 19.4414C106.903 19.5349 104.863 18.2374 103.782 16.1637ZM99.1843 21.5765C100.911 21.5765 102.486 21.5777 104.385 23.9271C107.514 23.5675 110.62 23.5675 113.749 23.9271C115.669 21.6016 117.223 21.6 118.95 21.6C124.517 21.6 125.856 30.7337 127.863 38.5971C129.675 45.9092 127.255 46.103 124.255 46.103C119.789 45.9112 117.31 42.3155 117.31 38.6954C113.146 39.4626 106.499 39.7503 100.824 38.6954C100.824 42.3155 98.345 45.9112 93.8784 46.103C90.8792 46.103 88.4584 45.9092 90.271 38.5971C92.2777 30.6857 93.6173 21.6 99.1843 21.6V21.5765ZM109.067 28.4737C109.067 28.4737 105.412 32.2195 104.751 33.5261L107.141 33.4277V35.7455C107.141 35.8846 108.907 35.7643 109.067 35.7643C110.031 35.805 110.993 35.8438 110.993 35.7455V33.4277L113.382 33.5261C112.722 32.2171 109.067 28.4737 109.067 28.4737Z" fill="#FEFCE8"/>
<g clip-path="url(#clip1_1115_4736)">
<path d="M191.6 0.291016C177.142 0.291016 165.421 12.1979 165.421 26.8855C165.421 39.2886 173.779 49.7078 185.085 52.6492C185.078 49.5758 185.068 45.806 185.062 44.6314C177.507 46.3005 175.913 41.3765 175.913 41.3765C174.678 38.1879 172.898 37.3397 172.898 37.3397C170.434 35.6276 173.084 35.6625 173.084 35.6625C175.811 35.8568 177.247 38.5055 177.247 38.5055C179.669 42.7227 183.6 41.5033 185.149 40.7988C185.393 39.0163 186.097 37.7987 186.874 37.1099C180.842 36.4124 174.501 34.0469 174.501 23.4764C174.501 20.4646 175.562 18.0038 177.299 16.0718C177.017 15.3766 176.087 12.5708 177.562 8.77072C177.562 8.77072 179.843 8.02956 185.032 11.5986C187.198 10.9872 189.521 10.6806 191.829 10.6702C194.137 10.6806 196.462 10.9872 198.632 11.5986C203.816 8.02956 206.093 8.77072 206.093 8.77072C207.571 12.5708 206.641 15.3766 206.359 16.0718C208.1 18.0038 209.154 20.4646 209.154 23.4764C209.154 34.0725 202.801 36.4048 196.754 37.0884C197.728 37.9447 198.596 39.6231 198.596 42.1968C198.596 44.2405 198.586 48.9457 198.578 52.5172C209.647 49.4141 217.779 39.1175 217.779 26.8855C217.779 12.1979 206.058 0.291016 191.6 0.291016Z" fill="#FEFCE8"/>
</g>
<defs>
<clipPath id="clip0_1115_4736">
<rect width="53" height="53" fill="white"/>
</clipPath>
<clipPath id="clip1_1115_4736">
<rect width="53" height="53" fill="white" transform="translate(165.13)"/>
</clipPath>
</defs>
</svg>
