<svg width="435" height="413" viewBox="0 0 435 413" fill="none" xmlns="http://www.w3.org/2000/svg">
<path opacity="0.5" d="M30.9687 10.6816C17.9745 10.6816 7.95357 22.024 9.38513 34.9081L19.8466 127.85C21.0579 138.862 30.4181 147.121 41.4301 147.121H47.8171V158.904H43.6325C31.6294 158.904 21.9388 168.594 21.9388 180.597V341.703C21.9388 353.706 30.6383 352.715 42.6415 352.715L303.626 363.397C315.63 363.397 325.32 353.706 325.32 341.703L315.409 172.889C315.409 160.886 315.63 158.904 303.626 158.904H300.653L288.76 150.865L30.9687 10.6816Z" fill="#E8D5C4"/>
<path d="M291.513 130.603H38.6771V152.957H291.513V130.603Z" fill="#7A8C79"/>
<path d="M294.376 352.825H34.4925C22.4894 352.825 12.7988 343.135 12.7988 331.131V169.915C12.7988 157.912 22.4894 148.222 34.4925 148.222H294.376C306.38 148.222 316.07 157.912 316.07 169.915V331.131C316.18 343.135 306.38 352.825 294.376 352.825Z" fill="#F1F7F0"/>
<path d="M297.24 136.439H32.1801C21.0579 136.439 11.8078 128.07 10.5965 117.168L0.13507 24.2265C-1.29649 11.3424 8.83458 0 21.8288 0H310.014C323.228 0 333.359 11.6727 331.597 24.6669L318.823 117.608C317.281 128.4 308.031 136.439 297.24 136.439Z" fill="#7A8C79"/>
<path d="M292.284 130.602H37.4659C26.7842 130.602 17.8644 123.004 16.6531 112.983L6.63218 27.9703C5.20062 16.1875 14.8912 5.94629 27.4449 5.94629H304.618C317.281 5.94629 327.082 16.628 325.32 28.5209L312.987 113.424C311.665 123.224 302.746 130.602 292.284 130.602Z" fill="#F1F7F0"/>
<path d="M202.646 346.989H130.958C121.818 346.989 114.55 339.611 114.55 330.581V295.893C114.55 286.753 121.928 279.485 130.958 279.485H202.646C211.786 279.485 219.054 286.863 219.054 295.893V330.581C219.164 339.611 211.786 346.989 202.646 346.989Z" stroke="#7A8C79" stroke-width="1.3121" stroke-miterlimit="10"/>
<path d="M295.698 172.889H38.0165C35.7039 172.889 33.942 171.017 33.942 168.814C33.942 166.502 35.8141 164.74 38.0165 164.74H295.588C297.9 164.74 299.662 166.612 299.662 168.814C299.772 171.017 297.9 172.889 295.698 172.889Z" fill="#7A8C79"/>
<path d="M295.698 190.728H38.0165C35.7039 190.728 33.942 188.856 33.942 186.654V180.597C33.942 178.284 35.8141 176.522 38.0165 176.522H295.588C297.9 176.522 299.662 178.395 299.662 180.597V186.654C299.772 188.966 297.9 190.728 295.698 190.728Z" fill="#7A8C79"/>
<path d="M295.698 209.118H38.0165C35.7039 209.118 33.942 207.246 33.942 205.044V198.987C33.942 196.675 35.8141 194.913 38.0165 194.913H295.588C297.9 194.913 299.662 196.785 299.662 198.987V205.044C299.772 207.246 297.9 209.118 295.698 209.118Z" fill="#7A8C79"/>
<path d="M295.698 227.398H38.0165C35.7039 227.398 33.942 225.526 33.942 223.323V217.267C33.942 214.954 35.8141 213.192 38.0165 213.192H295.588C297.9 213.192 299.662 215.064 299.662 217.267V223.323C299.772 225.526 297.9 227.398 295.698 227.398Z" fill="#7A8C79"/>
<path d="M295.698 245.678H38.0165C35.7039 245.678 33.942 243.806 33.942 241.604V235.547C33.942 233.235 35.8141 231.473 38.0165 231.473H295.588C297.9 231.473 299.662 233.345 299.662 235.547V241.604C299.772 243.806 297.9 245.678 295.698 245.678Z" fill="#7A8C79"/>
<path d="M38.0165 249.642H114.11C116.422 249.642 118.184 251.514 118.184 253.717V259.773C118.184 262.086 116.312 263.848 114.11 263.848H38.0165C35.7039 263.848 33.942 261.976 33.942 259.773V253.717C33.942 251.514 35.8141 249.642 38.0165 249.642Z" fill="#7A8C79"/>
<path d="M299.332 253.717V259.773C299.332 262.086 297.46 263.848 295.258 263.848H211.896C209.584 263.848 207.822 261.976 207.822 259.773V253.717C207.822 251.404 209.694 249.642 211.896 249.642H295.258C297.57 249.642 299.332 251.514 299.332 253.717Z" fill="#7A8C79"/>
<path d="M200.664 253.717V259.773C200.664 262.086 198.792 263.848 196.59 263.848H129.196C126.884 263.848 125.122 261.976 125.122 259.773V253.717C125.122 251.404 126.994 249.642 129.196 249.642H196.59C198.792 249.642 200.664 251.514 200.664 253.717Z" fill="#7A8C79"/>
<path d="M263.653 113.203H80.7432L71.3829 33.8066H268.939L263.653 113.203Z" fill="white"/>
<path d="M237.554 49.6641H88.2313V50.545H237.554V49.6641Z" fill="#7A8C79"/>
<path d="M233.7 58.2534H92.0854V59.1344H233.7V58.2534Z" fill="#7A8C79"/>
<path d="M229.846 67.834H95.9397V68.7149H229.846V67.834Z" fill="#7A8C79"/>
<path d="M222.688 79.2861H102.987V80.1671H222.688V79.2861Z" fill="#7A8C79"/>
<path d="M63.3442 162.647H60.8114V248.101H63.3442V162.647Z" fill="#F1F7F0"/>
<path d="M93.0766 162.647H90.5438V248.101H93.0766V162.647Z" fill="#F1F7F0"/>
<path d="M122.809 162.647H120.276V248.101H122.809V162.647Z" fill="#F1F7F0"/>
<path d="M152.431 162.647H149.899V248.101H152.431V162.647Z" fill="#F1F7F0"/>
<path d="M182.164 162.647H179.631V248.101H182.164V162.647Z" fill="#F1F7F0"/>
<path d="M211.896 162.647H209.364V248.101H211.896V162.647Z" fill="#F1F7F0"/>
<path d="M241.519 162.647H238.986V248.101H241.519V162.647Z" fill="#F1F7F0"/>
<path d="M271.251 162.647H268.719V248.101H271.251V162.647Z" fill="#F1F7F0"/>
<path opacity="0.5" d="M281.713 412.51H264.094L263.102 410.859L261.12 407.775L236.784 367.802L234.471 364.168L221.477 342.914C214.76 336.968 208.703 330.911 203.417 325.075C202.536 324.084 201.545 323.093 200.664 322.102C191.414 311.75 184.477 302.17 179.852 295.893C179.301 295.232 178.86 294.572 178.42 293.911C177.429 292.479 176.548 291.378 175.777 290.387C172.804 286.423 171.042 278.494 170.161 271.777C169.831 269.464 169.61 267.262 169.5 265.5C169.5 265.39 169.5 265.28 169.5 265.169C169.72 266.491 170.051 267.922 170.381 269.354C171.813 276.071 174.125 283.89 177.429 287.524C178.42 288.625 179.521 289.946 181.063 291.598C181.503 292.149 182.054 292.7 182.494 293.36C183.706 294.792 185.027 296.333 186.459 298.095C187.23 299.086 188.111 300.078 189.102 301.069C189.983 302.06 190.864 303.051 191.855 304.152C195.599 308.337 200.004 312.962 204.959 317.697C205.84 318.578 206.831 319.569 207.822 320.45C213.548 325.846 219.825 331.242 226.873 336.527L241.189 356.239L243.721 359.763L270.481 396.763L272.903 400.067L281.713 412.51Z" fill="#E8D5C4"/>
<path d="M358.357 412.51H281.713L272.793 400.177L270.37 396.873L243.611 359.763L241.078 356.239L226.763 336.417C219.825 331.131 213.438 325.736 207.712 320.34C206.721 319.459 205.73 318.578 204.849 317.587C199.893 312.851 195.489 308.226 191.745 304.042C190.754 303.051 189.873 301.95 188.992 300.958C188.111 299.967 187.23 298.976 186.349 297.985C184.917 296.333 183.596 294.682 182.384 293.25C181.834 292.589 181.393 292.039 180.953 291.488C179.521 289.836 178.31 288.405 177.319 287.304C174.015 283.67 171.703 275.741 170.271 269.134C169.941 267.812 169.721 266.491 169.5 265.279C169.5 265.169 169.5 265.059 169.5 264.949C169.39 264.288 169.28 263.738 169.17 263.187C168.619 259.994 168.399 257.791 168.399 257.791C168.179 256.25 168.729 255.479 169.941 255.479C171.152 255.369 172.804 256.029 174.786 257.131C175.227 257.351 175.667 257.681 176.108 258.012C180.512 261.095 185.468 266.601 187.34 272.768C188.441 276.622 190.533 279.705 192.626 281.467C193.066 281.908 193.617 282.238 194.057 282.568C197.471 284.551 200.664 283.449 200.774 277.613C200.774 277.062 200.774 276.402 200.774 275.631C200.664 274.199 200.444 272.658 200.004 270.786C197.471 259.773 194.498 246.669 191.855 236.758C191.634 235.987 191.414 235.217 191.304 234.446C189.762 228.72 188.331 224.315 187.34 222.553C184.697 217.818 183.375 192.6 191.304 206.585C194.718 212.642 197.691 217.818 200.224 222.553C200.664 223.324 200.995 223.984 201.325 224.755C204.078 230.371 205.95 235.437 206.831 240.833C208.373 251.404 212.998 247.88 212.998 247.88C219.715 230.702 211.126 222.993 205.84 219.359C205.289 219.029 204.739 218.699 204.298 218.368C204.188 218.258 203.968 218.148 203.858 218.038C199.343 215.065 196.039 211.871 202.316 210.329C204.298 209.889 206.941 210.109 209.694 210.99C210.575 211.21 211.456 211.541 212.337 211.871C218.284 214.184 224.23 218.368 226.212 222.553V222.663C226.543 223.544 226.873 224.645 227.203 225.856C228.525 231.362 229.516 240.062 230.507 245.678C230.727 246.669 230.837 247.55 231.058 248.211C231.608 250.523 232.159 251.625 232.819 250.633C233.59 249.642 234.251 247.55 234.692 244.907C234.912 243.476 235.132 241.824 235.352 239.952C235.903 234.115 235.903 227.068 234.912 221.892C234.581 220.35 234.141 218.478 233.37 216.496C233.04 215.395 232.599 214.184 232.049 212.972C228.525 203.172 224.45 193.261 236.784 206.585C236.784 206.585 236.784 206.695 236.894 206.695C237.445 207.356 237.995 208.017 238.546 208.568C242.4 213.193 244.712 218.038 246.034 222.553C246.584 224.315 246.915 226.077 247.135 227.839C248.567 238.19 245.704 246.449 245.373 247.55C245.043 248.761 248.236 249.973 251.099 241.604C252.201 238.3 253.302 233.565 254.073 226.737C256.716 202.621 259.579 209.889 259.579 209.889C262.442 214.624 263.433 219.91 263.323 225.196C263.323 226.958 263.213 228.72 262.992 230.481C261.561 242.925 256.165 255.479 257.486 264.399C257.486 264.619 257.486 264.729 257.597 264.949C257.707 265.61 257.817 266.381 257.817 267.041C259.138 281.467 255.284 303.932 259.579 312.631C260.35 314.063 263.653 318.027 268.829 323.423C269.6 324.194 270.37 325.075 271.251 325.956C279.731 334.765 291.734 346.879 304.508 359.542C305.169 360.313 305.939 360.974 306.71 361.745C319.154 373.968 332.038 386.632 342.83 396.983C343.6 397.754 344.261 398.415 345.032 399.076C350.208 404.582 354.723 408.876 358.357 412.51Z" fill="#FFBCBC"/>
<path d="M175.117 266.16C175.447 269.024 172.914 270.125 170.381 269.244C169.06 263.077 168.399 257.901 168.399 257.901C168.179 256.36 168.73 255.589 169.941 255.589C171.703 257.681 174.566 261.425 175.117 266.16Z" fill="#FCCACA"/>
<path opacity="0.5" d="M154.193 277.723C155.184 274.199 155.955 271.116 156.616 268.583C156.285 270.785 156.175 273.318 155.955 276.181C155.845 276.952 155.845 277.723 155.625 278.604C155.404 280.256 155.184 281.908 154.744 283.78C147.806 315.274 115.651 335.096 115.651 335.096C115.651 335.096 111.026 349.081 105.079 367.031C104.198 369.784 103.317 372.537 102.326 375.4C98.2519 387.623 93.8471 400.948 89.9929 412.4H74.3558C76.338 407.775 78.5404 402.71 80.7428 397.424C81.9541 394.671 83.1655 391.808 84.3768 389.055C96.3799 361.084 109.484 330.36 109.484 330.36C109.484 330.36 143.181 313.292 152.761 282.458C152.982 281.908 153.092 281.247 153.312 280.696C153.532 279.705 153.863 278.714 154.193 277.723Z" fill="#E8D5C4"/>
<path d="M156.836 267.262C156.726 267.702 156.616 268.032 156.506 268.473C155.955 271.116 155.074 274.199 154.083 277.723C153.753 278.714 153.532 279.705 153.202 280.806C153.092 281.247 152.872 281.798 152.761 282.348C143.181 313.182 109.484 330.25 109.484 330.25C109.484 330.25 96.3799 361.084 84.2667 389.165C83.0553 392.028 81.844 394.891 80.6327 397.534C78.3202 402.82 76.2279 407.885 74.2457 412.4H12.6885C20.0665 401.058 29.0964 387.183 38.0161 373.087C39.9983 370.004 41.8704 366.921 43.8525 363.837C61.3616 335.756 76.5582 309.217 75.457 304.042C75.0166 301.95 74.5761 298.646 74.1356 294.682C74.0255 293.25 73.8052 291.818 73.6951 290.277C72.8142 281.137 72.0433 269.794 71.3826 260.434C71.2725 258.342 71.0522 256.25 70.9421 254.378C70.5016 248.101 70.1713 243.586 69.8409 242.595C69.4004 241.053 69.5105 237.309 69.951 232.684C70.0611 231.473 70.1713 230.261 70.2814 228.94C70.832 224.425 71.6028 219.469 72.3737 215.395C74.2457 205.925 76.8886 205.154 76.8886 205.154C80.9631 206.695 82.8351 213.413 82.6149 222.222C82.6149 222.773 82.6149 223.324 82.6149 223.874C82.5047 226.627 82.1744 229.49 81.6238 232.464C80.7428 237.749 80.8529 241.824 81.2934 245.127C81.6238 247.33 82.1744 249.202 82.725 250.744C83.3857 252.616 84.0464 254.047 84.2667 255.038C85.0375 258.232 85.8083 251.074 85.8083 251.074C85.6982 249.973 85.5881 248.982 85.478 247.991C85.1476 245.678 84.9274 243.696 84.8173 241.824C83.9363 232.243 84.8173 227.839 88.6715 219.91C88.8917 219.469 89.112 219.139 89.3322 218.699C89.6626 218.148 89.8828 217.487 90.2132 216.937C96.7103 204.603 103.648 201.63 103.648 201.63C105.52 203.612 105.85 206.695 105.63 209.779C105.63 210.109 105.63 210.329 105.52 210.66C105.079 214.734 103.758 218.368 103.758 218.368L109.815 211.981L111.026 210.66L111.246 210.44C126.112 198.106 119.946 210.77 116.422 222.112C112.898 233.455 117.523 251.955 117.523 251.955C117.523 251.955 121.818 194.142 128.865 194.472C135.913 194.802 132.83 217.157 134.592 242.044C134.592 242.154 134.592 242.374 134.592 242.485C134.702 243.366 134.702 244.246 134.702 245.017C135.693 268.583 129.086 288.074 143.401 269.024C149.458 260.875 153.753 256.47 155.955 256.25C158.268 255.919 158.598 259.553 156.836 267.262Z" fill="#FFBCBC"/>
<path d="M103.868 218.258C103.868 218.258 98.3621 228.169 98.3621 234.997C98.3621 241.824 101.115 256.8 101.115 256.8C101.115 256.8 96.3799 235.767 103.868 218.258Z" fill="#F38BA0"/>
<path d="M156.836 267.262C155.514 267.592 153.642 266.932 152.431 265.72C150.779 264.179 154.413 258.452 156.065 256.14C158.268 255.92 158.598 259.554 156.836 267.262Z" fill="#FCCACA"/>
<path opacity="0.5" d="M429.163 47.242C425.75 43.8283 421.565 41.736 417.27 40.8551C415.949 40.6348 414.627 40.4146 413.306 40.4146C408.791 40.3045 404.276 41.5158 400.312 44.1587C398.99 45.0396 397.669 46.0307 396.568 47.1319L392.603 51.0963C389.961 51.757 387.538 52.7481 385.115 53.9594C376.526 58.144 369.588 65.1916 365.514 73.8911C364.523 76.0936 363.642 78.296 362.981 80.7186L359.898 83.802C357.255 86.4449 355.273 89.6384 354.282 93.0521C353.401 95.695 353.07 98.448 353.18 101.311C353.29 103.293 353.621 105.386 354.282 107.368C355.383 110.671 357.255 113.865 359.898 116.508L382.693 139.303L386.106 142.716L396.568 153.178C405.598 162.208 420.244 162.208 429.273 153.178L434.89 147.562V52.9683L429.163 47.242Z" fill="#E8D5C4"/>
<path d="M434.89 65.1912C435 65.3014 435 65.4115 435 65.6317C435 65.4115 434.89 65.3014 434.89 65.1912V133.796L425.089 143.597C416.059 152.627 401.413 152.627 392.383 143.597L381.922 133.135L378.508 129.722L355.713 106.927C353.07 104.284 351.198 101.09 350.097 97.7869C349.436 95.8047 349.106 93.8225 348.996 91.7302C348.666 85.4534 350.978 79.0664 355.713 74.3312L358.797 71.2479L363.422 66.6228L383.904 46.1404L388.529 41.5154L392.493 37.5511C397.118 32.926 403.175 30.6135 409.232 30.8337C410.553 30.8337 411.875 30.9438 413.196 31.2742C417.601 32.1552 421.785 34.2474 425.089 37.6612L434.89 47.4619V65.1912Z" fill="#DDB99C"/>
<path d="M434.393 65.2291C434.504 65.3392 434.504 65.4493 434.504 65.6696C434.504 65.4493 434.393 65.3392 434.393 65.2291V122.822C427.236 128.218 419.087 131.301 412.92 131.852C402.459 132.623 393.649 129.099 387.482 125.575C385.941 124.694 384.509 123.813 383.298 122.932C380.214 120.73 378.452 118.968 378.452 118.968L380.435 116.876L431.31 60.1636L433.182 58.0713C433.623 58.5118 433.953 58.8421 434.283 59.2826V65.2291H434.393Z" fill="#CC9F90"/>
<path d="M420.959 49.7022C418.536 49.2617 416.113 49.0415 413.691 49.0415C389.464 49.0415 369.753 68.753 369.753 92.9795C369.753 100.027 371.405 106.745 374.378 112.691C365.458 105.533 359.732 94.5212 359.732 82.0776C359.732 60.3839 377.351 42.7646 399.045 42.7646C407.084 42.8748 414.682 45.4075 420.959 49.7022Z" fill="#CC9F90"/>
<path d="M433.512 63.4672C433.843 64.0178 434.173 64.5684 434.393 65.2292V99.1462C428.117 112.361 414.572 121.391 398.935 121.391C398.384 121.391 397.833 121.391 397.173 121.391C396.842 121.391 396.622 121.391 396.292 121.391C395.851 121.391 395.301 121.28 394.86 121.28C394.31 121.28 393.759 121.17 393.208 121.06C392.548 120.95 391.887 120.84 391.226 120.73C390.786 120.62 390.455 120.62 390.125 120.51C389.685 120.399 389.244 120.289 388.804 120.179C387.813 119.959 386.932 119.629 386.051 119.298C385.94 119.298 385.72 119.188 385.61 119.188C385.06 118.968 384.619 118.858 384.068 118.637C383.518 118.417 383.077 118.197 382.527 117.977C382.086 117.757 381.536 117.536 381.095 117.316C380.875 117.206 380.545 116.986 380.324 116.876C378.232 115.774 376.25 114.453 374.378 112.911C371.405 106.965 369.753 100.247 369.753 93.1997C369.753 82.6282 373.497 72.9376 379.664 65.4494C381.095 63.6875 382.747 61.9256 384.509 60.3839C392.217 53.4463 402.459 49.2617 413.691 49.2617C416.113 49.2617 418.646 49.482 420.959 49.9224C421.619 50.3629 422.28 50.8034 422.831 51.2439C423.381 51.6844 423.932 52.1248 424.593 52.6754C424.703 52.6754 424.703 52.7856 424.813 52.8957C425.364 53.3362 425.914 53.8868 426.355 54.3272C426.905 54.8779 427.456 55.4285 428.006 55.9791C428.557 56.5297 428.997 57.1904 429.548 57.741C429.989 58.4017 430.539 58.9523 430.98 59.613C431.09 59.7231 431.2 59.9434 431.31 60.0535C431.64 60.494 431.971 60.9345 432.191 61.4851C432.521 62.0357 432.852 62.5863 433.182 63.1369C433.292 63.1369 433.402 63.3571 433.512 63.4672Z" fill="#BA8C8C"/>
<path d="M403.67 40.3418C402.128 40.2317 400.587 40.1216 398.935 40.1216C395.191 40.1216 391.447 40.6722 387.923 41.5531C373.607 45.4074 362.265 56.7497 358.3 71.1755C357.309 74.6993 356.869 78.4434 356.869 82.1875V82.628C356.869 84.8304 357.089 86.9227 357.419 89.015C359.512 101.899 367.44 112.691 378.342 118.858C380.214 119.959 382.196 120.84 384.179 121.611C385.83 122.271 387.482 122.712 389.244 123.152C392.327 123.923 395.521 124.253 398.825 124.253C413.691 124.253 426.795 116.545 434.283 104.872V99.1461C428.006 112.36 414.462 121.39 398.825 121.39C398.274 121.39 397.723 121.39 397.063 121.39C396.732 121.39 396.512 121.39 396.182 121.39C395.741 121.39 395.191 121.28 394.75 121.28C394.2 121.28 393.649 121.17 393.098 121.06C392.438 120.95 391.777 120.84 391.116 120.73C390.676 120.619 390.345 120.619 390.015 120.509C389.575 120.399 389.134 120.289 388.694 120.179C387.702 119.959 386.821 119.628 385.941 119.298C385.83 119.298 385.61 119.188 385.5 119.188C384.949 119.078 384.509 118.858 383.958 118.637C383.408 118.417 382.967 118.197 382.417 117.977C381.866 117.756 381.426 117.536 380.985 117.316C380.655 117.206 380.435 117.096 380.214 116.875C376.801 115.113 373.717 112.801 371.074 110.048C370.083 109.057 369.092 107.956 368.211 106.854C367.33 105.753 366.449 104.542 365.678 103.331C365.238 102.67 364.908 102.119 364.577 101.459C364.247 100.798 363.916 100.137 363.586 99.5865C363.256 98.9258 362.925 98.2651 362.705 97.6044C362.375 96.9436 362.155 96.2829 361.934 95.6222C361.604 94.8514 361.384 94.0805 361.163 93.3097C360.943 92.7591 360.833 92.0983 360.723 91.5477C360.503 90.6668 360.393 89.7858 360.172 88.9049C360.062 88.4644 360.062 88.134 360.062 87.6935C359.952 87.3632 359.952 86.9227 359.952 86.5923C359.842 85.9316 359.842 85.381 359.842 84.7203C359.842 83.9495 359.732 83.1786 359.732 82.4078C359.732 81.5268 359.732 80.6458 359.842 79.7649C360.172 75.1398 361.274 70.8451 362.925 66.7707C366.89 57.6307 374.158 50.2527 383.408 46.2883C387.262 44.6365 391.447 43.5353 395.961 43.205C396.953 43.0948 398.054 43.0948 399.045 43.0948C399.706 43.0948 400.256 43.0948 400.917 43.0948H401.137C401.247 43.0948 401.357 43.0948 401.467 43.0948C402.018 43.0948 402.569 43.205 403.009 43.205C403.67 43.205 404.331 43.3151 404.991 43.4252C406.093 43.5353 407.194 43.7556 408.185 44.0859C408.515 44.196 408.846 44.3062 409.176 44.3062C409.616 44.4163 410.167 44.5264 410.607 44.7466C411.268 44.9669 411.819 45.1871 412.48 45.4074C413.03 45.6276 413.691 45.8478 414.241 46.0681C415.893 46.7288 417.435 47.4996 418.866 48.3806C419.197 48.4907 419.417 48.711 419.747 48.9312C420.849 49.5919 421.84 50.2526 422.831 51.0235C423.381 51.464 423.932 51.9045 424.593 52.4551C424.703 52.4551 424.703 52.5652 424.813 52.6753C425.364 53.1158 425.914 53.6664 426.355 54.1069C426.905 54.6575 427.456 55.2081 428.006 55.7587C428.557 56.3093 429.108 56.97 429.548 57.5206C429.989 58.1813 430.539 58.7319 430.98 59.3926C431.09 59.5028 431.2 59.723 431.31 59.8331C431.64 60.2736 431.971 60.7141 432.191 61.2647C432.521 61.8153 432.852 62.3659 433.182 62.9165C433.292 63.0266 433.402 63.2468 433.402 63.357C433.733 63.9076 433.953 64.4582 434.283 65.0088V59.2825C433.953 58.7319 433.512 58.1813 433.182 57.6307C426.465 48.2705 415.783 41.6633 403.67 40.3418Z" fill="white"/>
<path d="M388.473 100.247C388.473 101.789 387.262 103 385.72 103C384.179 103 382.967 101.789 382.967 100.247C382.967 98.7055 384.179 97.4941 385.72 97.4941C387.262 97.6043 388.473 98.8156 388.473 100.247Z" fill="white"/>
<path d="M379.994 100.248C379.994 101.128 379.223 101.899 378.342 101.899C377.461 101.899 376.69 101.128 376.69 100.248C376.69 99.3665 377.461 98.5957 378.342 98.5957C379.223 98.7058 379.994 99.3665 379.994 100.248Z" fill="white"/>
<path d="M383.408 95.6222C382.086 96.2829 380.434 95.8425 379.774 94.521C379.113 93.1996 379.554 91.5478 380.875 90.8871C382.196 90.2263 383.848 90.6668 384.509 91.9883C385.17 93.3097 384.729 94.9615 383.408 95.6222Z" fill="white"/>
<path opacity="0.5" d="M421.125 314.394L391.062 230.813C389.63 226.738 385.115 224.536 380.931 226.077L338.094 241.494C334.019 242.926 333.469 238.08 334.9 242.155L363.311 335.096C364.743 339.171 369.258 341.373 373.443 339.832L416.279 324.415C420.464 322.983 422.556 318.468 421.125 314.394Z" fill="#E8D5C4"/>
<path d="M418.041 315.054L375.204 330.471C371.13 331.903 366.615 329.81 365.073 325.736L335.01 242.155C333.579 238.08 335.671 233.565 339.746 232.024L382.582 216.607C386.657 215.175 391.172 217.267 392.713 221.342L422.776 304.923C424.208 308.998 422.116 313.513 418.041 315.054Z" fill="#DBB595"/>
<path d="M390.479 221.843L336.912 241.12L367.263 325.46L420.831 306.183L390.479 221.843Z" fill="white"/>
<path d="M372.393 223.666L351.36 231.235L351.882 232.686L372.915 225.117L372.393 223.666Z" fill="#E5C3A3"/>
</svg>
