<svg width="134" height="143" viewBox="0 0 134 143" fill="none" xmlns="http://www.w3.org/2000/svg">
<rect x="60.8701" y="2.98486" width="83" height="109" rx="10" transform="rotate(32.5196 60.8701 2.98486)" fill="#F5F5F5"/>
<rect x="61.4707" y="18.7852" width="39" height="6" rx="3" transform="rotate(32.5196 61.4707 18.7852)" fill="#8EBBF1"/>
<rect x="56.6323" y="26.374" width="63" height="4" rx="2" transform="rotate(32.5196 56.6323 26.374)" fill="#9B9B9B"/>
<rect x="38.8918" y="54.1997" width="66" height="4" rx="2" transform="rotate(32.5196 38.8918 54.1997)" fill="#9B9B9B"/>
<rect x="52.8696" y="32.2759" width="63" height="4" rx="2" transform="rotate(32.5196 52.8696 32.2759)" fill="#9B9B9B"/>
<rect x="35.1292" y="60.1021" width="66" height="4" rx="2" transform="rotate(32.5196 35.1292 60.1021)" fill="#9B9B9B"/>
<rect x="49.1057" y="38.1787" width="63" height="4" rx="2" transform="rotate(32.5196 49.1057 38.1787)" fill="#9B9B9B"/>
<rect x="31.3655" y="66.0044" width="66" height="4" rx="2" transform="rotate(32.5196 31.3655 66.0044)" fill="#9B9B9B"/>
<rect x="45.343" y="44.0811" width="59" height="4" rx="2" transform="rotate(32.5196 45.343 44.0811)" fill="#9B9B9B"/>
<rect x="27.6025" y="71.9067" width="59" height="4" rx="2" transform="rotate(32.5196 27.6025 71.9067)" fill="#9B9B9B"/>
</svg>
