<svg width="39" height="160" viewBox="0 0 39 160" fill="none" xmlns="http://www.w3.org/2000/svg">
<g clip-path="url(#clip0_1115_5241)">
<path d="M35.3569 0.21106H3.0156C1.4668 0.21106 0.21106 1.42842 0.21106 2.92957V35.443C0.21106 36.9445 1.4668 38.1615 3.0156 38.1615H35.3569C36.9057 38.1615 38.1615 36.9445 38.1615 35.443V2.92957C38.1615 1.42842 36.9057 0.21106 35.3569 0.21106ZM11.7151 31.9794H5.9829V14.8426H11.7151V31.9794ZM8.849 12.5032H8.81189C6.88823 12.5032 5.64429 11.1872 5.64429 9.54265C5.64429 7.86102 6.92618 6.58167 8.88695 6.58167C10.8481 6.58167 12.055 7.86102 12.0921 9.54265C12.0921 11.1872 10.8477 12.5032 8.849 12.5032ZM32.3842 31.9794H26.6528V22.8118C26.6528 20.5082 25.823 18.9366 23.7488 18.9366C22.165 18.9366 21.2221 19.9963 20.8076 21.0197C20.6562 21.3857 20.6191 21.8972 20.6191 22.4095V31.9794H14.8869C14.8869 31.9794 14.962 16.4509 14.8869 14.8426H20.6191V17.2698C21.3806 16.1022 22.7426 14.4408 25.785 14.4408C29.5564 14.4408 32.3842 16.8898 32.3842 22.1536V31.9794Z" fill="#FD7D7D"/>
</g>
<path d="M19.2094 60.8851C14.1233 60.8851 7.18564 60.9735 5.77806 61.1125C4.19843 62.1656 1.07156 66.152 1.04028 67.1876V68.9253C1.04028 71.12 2.89033 73.0489 4.56536 73.0489C6.57195 73.0489 8.24622 71.1896 8.24622 68.9966C8.24622 71.1896 9.87318 73.0489 11.8782 73.0489C13.9004 73.0489 15.4644 71.1913 15.4644 68.9966C15.4644 71.1896 17.1688 73.0489 19.1911 73.0489H19.2247C21.2469 73.0489 22.9513 71.1913 22.9513 68.9966C22.9513 71.1896 24.5309 73.0489 26.5375 73.0489C28.5441 73.0489 30.1725 71.1913 30.1725 68.9966C30.1725 71.1896 31.8468 73.0489 33.8534 73.0489C35.5284 73.0489 37.3754 71.12 37.3754 68.9253V67.1876C37.3441 66.152 34.2173 62.1656 32.6377 61.1125C27.7236 60.9196 24.2955 60.8851 19.2094 60.8851ZM15.3788 72.6009C13.732 75.7461 9.5945 75.7839 7.98046 72.6213C6.99515 74.5189 4.76489 75.2515 3.81086 74.8918C3.53247 78.1917 3.34039 95.1327 5.36262 97.9739C11.3011 99.5117 27.2866 99.4787 33.0561 97.9739C35.3943 95.3256 34.8707 77.9519 34.6079 74.8918C33.6539 75.2515 31.4232 74.5189 30.4536 72.6213C28.8223 75.7839 24.6852 75.7461 23.0399 72.6009C22.5316 73.6262 21.3473 74.9767 19.2094 74.9767C17.6407 75.0444 16.1624 74.104 15.3788 72.6009ZM12.0462 76.5243C13.2974 76.5243 14.4394 76.5251 15.8157 78.2281C18.0834 77.9674 20.3353 77.9674 22.6031 78.2281C23.9951 76.5425 25.1214 76.5413 26.3726 76.5413C30.4076 76.5413 31.3786 83.1616 32.8332 88.8612C34.1469 94.1611 32.3923 94.3016 30.2184 94.3016C26.9809 94.1626 25.1843 91.5564 25.1843 88.9325C22.1658 89.4885 17.3478 89.6971 13.2345 88.9325C13.2345 91.5564 11.4378 94.1626 8.2004 94.3016C6.02646 94.3016 4.27187 94.1611 5.58561 88.8612C7.04012 83.1268 8.01113 76.5413 12.0462 76.5413V76.5243ZM19.2094 81.5235C19.2094 81.5235 16.56 84.2385 16.0814 85.1856L17.8134 85.1143V86.7943C17.8134 86.8951 19.0936 86.8079 19.2094 86.8079C19.9085 86.8374 20.6054 86.8655 20.6054 86.7943V85.1143L22.3374 85.1856C21.8588 84.2368 19.2094 81.5235 19.2094 81.5235Z" fill="#FD7D7D"/>
<g clip-path="url(#clip1_1115_5241)">
<path d="M19.1863 121.795C8.70647 121.795 0.21106 130.426 0.21106 141.072C0.21106 150.062 6.26921 157.614 14.4644 159.746C14.4589 157.518 14.4517 154.786 14.4475 153.934C8.9717 155.144 7.81632 151.575 7.81632 151.575C6.92111 149.264 5.6308 148.649 5.6308 148.649C3.8446 147.408 5.76531 147.434 5.76531 147.434C7.74169 147.574 8.78279 149.494 8.78279 149.494C10.5382 152.551 13.3874 151.667 14.5108 151.156C14.6875 149.864 15.1973 148.982 15.7606 148.483C11.3887 147.977 6.79251 146.263 6.79251 138.601C6.79251 136.418 7.56163 134.634 8.82074 133.234C8.61623 132.73 7.9424 130.696 9.01134 127.942C9.01134 127.942 10.6643 127.405 14.4256 129.991C15.9959 129.548 17.6796 129.326 19.3524 129.319C21.0252 129.326 22.7102 129.548 24.2834 129.991C28.0405 127.405 29.6909 127.942 29.6909 127.942C30.7624 130.696 30.0886 132.73 29.8841 133.234C31.1461 134.634 31.9098 136.418 31.9098 138.601C31.9098 146.281 27.3051 147.972 22.9219 148.467C23.6277 149.088 24.2569 150.304 24.2569 152.17C24.2569 153.651 24.2501 157.062 24.2438 159.65C32.2669 157.401 38.1615 149.938 38.1615 141.072C38.1615 130.426 29.6661 121.795 19.1863 121.795Z" fill="#FD7D7D"/>
</g>
<defs>
<clipPath id="clip0_1115_5241">
<rect width="38.4156" height="38.4156" fill="white"/>
</clipPath>
<clipPath id="clip1_1115_5241">
<rect width="38.4156" height="38.4156" fill="white" transform="translate(0 121.584)"/>
</clipPath>
</defs>
</svg>
