<svg width="81" height="986" viewBox="0 0 81 986" fill="none" xmlns="http://www.w3.org/2000/svg">
<g clip-path="url(#clip0_1115_5392)">
<path d="M56.3569 774.211H24.0156C22.4668 774.211 21.2111 775.428 21.2111 776.93V809.443C21.2111 810.945 22.4668 812.161 24.0156 812.161H56.3569C57.9057 812.161 59.1615 810.945 59.1615 809.443V776.93C59.1615 775.428 57.9057 774.211 56.3569 774.211ZM32.7151 805.979H26.9829V788.843H32.7151V805.979ZM29.849 786.503H29.8119C27.8882 786.503 26.6443 785.187 26.6443 783.543C26.6443 781.861 27.9262 780.582 29.8869 780.582C31.8481 780.582 33.055 781.861 33.0921 783.543C33.0921 785.187 31.8477 786.503 29.849 786.503ZM53.3842 805.979H47.6528V796.812C47.6528 794.508 46.823 792.937 44.7488 792.937C43.165 792.937 42.2221 793.996 41.8076 795.02C41.6562 795.386 41.6191 795.897 41.6191 796.41V805.979H35.8869C35.8869 805.979 35.962 790.451 35.8869 788.843H41.6191V791.27C42.3806 790.102 43.7426 788.441 46.785 788.441C50.5564 788.441 53.3842 790.89 53.3842 796.154V805.979Z" fill="#FD7D7D"/>
</g>
<path d="M40.2094 834.885C35.1233 834.885 28.1856 834.974 26.7781 835.113C25.1984 836.166 22.0716 840.152 22.0403 841.188V842.925C22.0403 845.12 23.8903 847.049 25.5654 847.049C27.5719 847.049 29.2462 845.19 29.2462 842.997C29.2462 845.19 30.8732 847.049 32.8782 847.049C34.9004 847.049 36.4644 845.191 36.4644 842.997C36.4644 845.19 38.1688 847.049 40.1911 847.049H40.2247C42.2469 847.049 43.9513 845.191 43.9513 842.997C43.9513 845.19 45.5309 847.049 47.5375 847.049C49.5441 847.049 51.1725 845.191 51.1725 842.997C51.1725 845.19 52.8468 847.049 54.8534 847.049C56.5284 847.049 58.3754 845.12 58.3754 842.925V841.188C58.3441 840.152 55.2173 836.166 53.6377 835.113C48.7236 834.92 45.2955 834.885 40.2094 834.885ZM36.3788 846.601C34.732 849.746 30.5945 849.784 28.9805 846.621C27.9952 848.519 25.7649 849.252 24.8109 848.892C24.5325 852.192 24.3404 869.133 26.3626 871.974C32.3011 873.512 48.2866 873.479 54.0561 871.974C56.3943 869.326 55.8707 851.952 55.6079 848.892C54.6539 849.252 52.4232 848.519 51.4536 846.621C49.8223 849.784 45.6852 849.746 44.0399 846.601C43.5316 847.626 42.3473 848.977 40.2094 848.977C38.6407 849.044 37.1624 848.104 36.3788 846.601ZM33.0462 850.524C34.2974 850.524 35.4394 850.525 36.8157 852.228C39.0834 851.967 41.3353 851.967 43.6031 852.228C44.9951 850.542 46.1214 850.541 47.3726 850.541C51.4076 850.541 52.3786 857.162 53.8332 862.861C55.1469 868.161 53.3923 868.302 51.2184 868.302C47.9809 868.163 46.1843 865.556 46.1843 862.932C43.1658 863.489 38.3478 863.697 34.2345 862.932C34.2345 865.556 32.4378 868.163 29.2004 868.302C27.0265 868.302 25.2719 868.161 26.5856 862.861C28.0401 857.127 29.0111 850.541 33.0462 850.541V850.524ZM40.2094 855.524C40.2094 855.524 37.56 858.239 37.0814 859.186L38.8134 859.114V860.794C38.8134 860.895 40.0936 860.808 40.2094 860.808C40.9085 860.837 41.6054 860.866 41.6054 860.794V859.114L43.3374 859.186C42.8588 858.237 40.2094 855.524 40.2094 855.524Z" fill="#FD7D7D"/>
<g clip-path="url(#clip1_1115_5392)">
<path d="M40.1863 895.795C29.7065 895.795 21.2111 904.426 21.2111 915.072C21.2111 924.062 27.2692 931.614 35.4644 933.746C35.4589 931.518 35.4517 928.786 35.4475 927.934C29.9717 929.144 28.8163 925.575 28.8163 925.575C27.9211 923.264 26.6308 922.649 26.6308 922.649C24.8446 921.408 26.7653 921.434 26.7653 921.434C28.7417 921.574 29.7828 923.494 29.7828 923.494C31.5382 926.551 34.3874 925.667 35.5108 925.156C35.6875 923.864 36.1973 922.982 36.7606 922.483C32.3887 921.977 27.7925 920.263 27.7925 912.601C27.7925 910.418 28.5616 908.634 29.8207 907.234C29.6162 906.73 28.9424 904.696 30.0113 901.942C30.0113 901.942 31.6643 901.405 35.4256 903.991C36.9959 903.548 38.6796 903.326 40.3524 903.319C42.0252 903.326 43.7102 903.548 45.2834 903.991C49.0405 901.405 50.6909 901.942 50.6909 901.942C51.7624 904.696 51.0886 906.73 50.8841 907.234C52.1461 908.634 52.9098 910.418 52.9098 912.601C52.9098 920.281 48.3051 921.972 43.9219 922.467C44.6277 923.088 45.2569 924.304 45.2569 926.17C45.2569 927.651 45.2501 931.062 45.2438 933.65C53.2669 931.401 59.1615 923.938 59.1615 915.072C59.1615 904.426 50.6661 895.795 40.1863 895.795Z" fill="#FD7D7D"/>
</g>
<path d="M80 0V986H82V0H80Z" fill="#7E2020" mask="url(#path-1-inside-1_1115_5392)"/>
<defs>
<clipPath id="clip0_1115_5392">
<rect width="38.4156" height="38.4156" fill="white" transform="translate(21 774)"/>
</clipPath>
<clipPath id="clip1_1115_5392">
<rect width="38.4156" height="38.4156" fill="white" transform="translate(21 895.584)"/>
</clipPath>
</defs>
</svg>
