<svg xmlns="http://www.w3.org/2000/svg" width="435" height="413" fill="none" viewBox="0 0 435 413">
  <path fill="#E8D5C4" d="M30.969 10.682c-12.995 0-23.015 11.342-21.584 24.226l10.462 92.942c1.21 11.012 10.571 19.271 21.583 19.271h6.387v11.783h-4.184c-12.004 0-21.694 9.69-21.694 21.693v161.106c0 12.003 8.7 11.012 20.703 11.012l260.984 10.682c12.004 0 21.694-9.691 21.694-21.694l-9.911-168.814c0-12.003.221-13.985-11.783-13.985h-2.973l-11.893-8.039L30.969 10.682Z" opacity=".5"/>
  <path fill="#7A8C79" d="M291.513 130.603H38.677v22.354h252.836v-22.354Z"/>
  <path fill="#F1F7F0" d="M294.376 352.825H34.493c-12.004 0-21.694-9.69-21.694-21.694V169.915c0-12.003 9.69-21.693 21.694-21.693h259.883c12.004 0 21.694 9.69 21.694 21.693v161.216c.11 12.004-9.69 21.694-21.694 21.694Z"/>
  <path fill="#7A8C79" d="M297.24 136.439H32.18c-11.122 0-20.372-8.369-21.584-19.271L.136 24.226C-1.297 11.343 8.834 0 21.828 0h288.185c13.214 0 23.345 11.673 21.583 24.667l-12.774 92.941c-1.542 10.792-10.792 18.831-21.583 18.831Z"/>
  <path fill="#F1F7F0" d="M292.284 130.602H37.466c-10.682 0-19.602-7.598-20.813-17.619L6.633 27.97C5.2 16.188 14.89 5.946 27.444 5.946h277.173c12.663 0 22.464 10.682 20.702 22.575l-12.333 84.903c-1.322 9.8-10.241 17.178-20.703 17.178Z"/>
  <path stroke="#7A8C79" stroke-miterlimit="10" stroke-width="1.312" d="M202.646 346.989h-71.688c-9.14 0-16.408-7.378-16.408-16.408v-34.688c0-9.14 7.378-16.408 16.408-16.408h71.688c9.14 0 16.408 7.378 16.408 16.408v34.688c.11 9.03-7.268 16.408-16.408 16.408Z"/>
  <path fill="#7A8C79" d="M295.698 172.889H38.017a4.065 4.065 0 0 1-4.075-4.075 4.065 4.065 0 0 1 4.075-4.074h257.571a4.065 4.065 0 0 1 4.074 4.074c.11 2.203-1.762 4.075-3.964 4.075Zm0 17.839H38.017a4.065 4.065 0 0 1-4.075-4.074v-6.057a4.065 4.065 0 0 1 4.075-4.075h257.571a4.066 4.066 0 0 1 4.074 4.075v6.057c.11 2.312-1.762 4.074-3.964 4.074Zm0 18.39H38.017a4.065 4.065 0 0 1-4.075-4.074v-6.057a4.065 4.065 0 0 1 4.075-4.074h257.571a4.065 4.065 0 0 1 4.074 4.074v6.057c.11 2.202-1.762 4.074-3.964 4.074Zm0 18.28H38.017a4.065 4.065 0 0 1-4.075-4.075v-6.056a4.065 4.065 0 0 1 4.075-4.075h257.571a4.065 4.065 0 0 1 4.074 4.075v6.056c.11 2.203-1.762 4.075-3.964 4.075Zm0 18.28H38.017a4.065 4.065 0 0 1-4.075-4.074v-6.057a4.065 4.065 0 0 1 4.075-4.074h257.571a4.065 4.065 0 0 1 4.074 4.074v6.057c.11 2.202-1.762 4.074-3.964 4.074Zm-257.681 3.964h76.093a4.065 4.065 0 0 1 4.074 4.075v6.056a4.065 4.065 0 0 1-4.074 4.075H38.016a4.065 4.065 0 0 1-4.074-4.075v-6.056c0-2.203 1.872-4.075 4.075-4.075Zm261.315 4.075v6.056a4.065 4.065 0 0 1-4.074 4.075h-83.362a4.065 4.065 0 0 1-4.074-4.075v-6.056a4.065 4.065 0 0 1 4.074-4.075h83.362a4.065 4.065 0 0 1 4.074 4.075Zm-98.668 0v6.056a4.065 4.065 0 0 1-4.074 4.075h-67.394a4.065 4.065 0 0 1-4.074-4.075v-6.056a4.065 4.065 0 0 1 4.074-4.075h67.394c2.202 0 4.074 1.872 4.074 4.075Z"/>
  <path fill="#fff" d="M263.653 113.203H80.743l-9.36-79.396h197.556l-5.286 79.396Z"/>
  <path fill="#7A8C79" d="M237.554 49.664H88.231v.881h149.323v-.88Zm-3.854 8.589H92.085v.881H233.7v-.88Zm-3.854 9.581H95.94v.88h133.906v-.88Zm-7.158 11.452H102.987v.881h119.701v-.88Z"/>
  <path fill="#F1F7F0" d="M63.344 162.647h-2.533v85.454h2.533v-85.454Zm29.733 0h-2.533v85.454h2.533v-85.454Zm29.732 0h-2.533v85.454h2.533v-85.454Zm29.622 0h-2.532v85.454h2.532v-85.454Zm29.733 0h-2.533v85.454h2.533v-85.454Zm29.732 0h-2.532v85.454h2.532v-85.454Zm29.623 0h-2.533v85.454h2.533v-85.454Zm29.732 0h-2.532v85.454h2.532v-85.454Z"/>
  <path fill="#E8D5C4" d="M281.713 412.51h-17.62l-.991-1.651-1.982-3.084-24.337-39.973-2.312-3.634-12.994-21.254a231.379 231.379 0 0 1-18.06-17.839c-.881-.991-1.872-1.982-2.753-2.973-9.25-10.352-16.188-19.932-20.813-26.209-.55-.661-.991-1.321-1.431-1.982-.991-1.432-1.872-2.533-2.643-3.524-2.973-3.964-4.735-11.893-5.616-18.61a81.583 81.583 0 0 1-.661-6.277v-.331c.22 1.322.551 2.753.881 4.185 1.432 6.717 3.744 14.536 7.048 18.17.991 1.101 2.092 2.422 3.634 4.074.44.551.991 1.102 1.431 1.762 1.212 1.432 2.533 2.973 3.965 4.735.77.991 1.651 1.983 2.642 2.974a647.9 647.9 0 0 0 2.753 3.083 242.187 242.187 0 0 0 13.105 13.545c.881.881 1.872 1.872 2.863 2.753 5.726 5.396 12.003 10.792 19.051 16.077l14.315 19.712 2.533 3.524 26.759 37 2.423 3.304 8.81 12.443Z" opacity=".5"/>
  <path fill="#FFBCBC" d="M358.356 412.51h-76.643l-8.92-12.333-2.423-3.304-26.759-37.11-2.533-3.524-14.315-19.822c-6.938-5.286-13.325-10.681-19.051-16.077-.991-.881-1.982-1.762-2.863-2.753a242.518 242.518 0 0 1-13.105-13.545c-.991-.991-1.872-2.092-2.753-3.084l-2.643-2.973c-1.431-1.652-2.753-3.303-3.964-4.735-.55-.661-.991-1.211-1.431-1.762-1.432-1.652-2.643-3.083-3.634-4.184-3.304-3.634-5.617-11.563-7.048-18.17-.33-1.322-.551-2.643-.771-3.855v-.33c-.11-.661-.22-1.211-.33-1.762-.551-3.193-.771-5.396-.771-5.396-.22-1.541.33-2.312 1.542-2.312 1.211-.11 2.863.55 4.845 1.652.44.22.881.55 1.321.881 4.405 3.083 9.36 8.589 11.233 14.756 1.101 3.854 3.193 6.937 5.285 8.699.441.441.991.771 1.432 1.101 3.414 1.983 6.607.881 6.717-4.955v-1.982a31.004 31.004 0 0 0-.771-4.845c-2.532-11.013-5.506-24.117-8.149-34.028-.22-.771-.44-1.541-.55-2.312-1.542-5.726-2.973-10.131-3.964-11.893-2.643-4.735-3.965-29.953 3.964-15.968 3.414 6.057 6.387 11.233 8.92 15.968.44.771.77 1.431 1.101 2.202 2.753 5.616 4.625 10.682 5.506 16.078 1.542 10.571 6.167 7.047 6.167 7.047 6.717-17.178-1.872-24.887-7.158-28.521-.551-.33-1.101-.66-1.542-.991-.11-.11-.33-.22-.44-.33-4.515-2.973-7.819-6.167-1.542-7.709 1.982-.44 4.625-.22 7.378.661.881.22 1.762.551 2.643.881 5.946 2.313 11.893 6.497 13.875 10.682v.11c.33.881.661 1.982.991 3.193 1.322 5.506 2.313 14.206 3.304 19.822.22.991.33 1.872.55 2.533.551 2.312 1.101 3.414 1.762 2.422.771-.991 1.432-3.083 1.872-5.726.221-1.431.441-3.083.661-4.955.551-5.837.551-12.884-.441-18.06-.33-1.542-.77-3.414-1.541-5.396a28.271 28.271 0 0 0-1.322-3.524c-3.523-9.8-7.598-19.711 4.736-6.387 0 0 0 .11.11.11.55.661 1.101 1.322 1.651 1.873 3.855 4.625 6.167 9.47 7.489 13.985.55 1.762.881 3.524 1.101 5.286 1.431 10.351-1.432 18.61-1.762 19.711-.33 1.211 2.863 2.423 5.726-5.946 1.101-3.304 2.203-8.039 2.973-14.867 2.643-24.116 5.506-16.848 5.506-16.848 2.864 4.735 3.855 10.021 3.745 15.307 0 1.762-.111 3.524-.331 5.285-1.431 12.444-6.827 24.998-5.506 33.918 0 .22 0 .33.11.55.11.661.221 1.432.221 2.092 1.321 14.426-2.533 36.891 1.761 45.59.771 1.432 4.075 5.396 9.251 10.792.77.771 1.541 1.652 2.422 2.533 8.479 8.809 20.483 20.923 33.257 33.586.66.771 1.431 1.432 2.202 2.203 12.444 12.223 25.328 24.887 36.119 35.238.771.771 1.432 1.432 2.203 2.093 5.175 5.506 9.69 9.8 13.324 13.434Z"/>
  <path fill="#FCCACA" d="M175.116 266.16c.331 2.864-2.202 3.965-4.735 3.084-1.321-6.167-1.982-11.343-1.982-11.343-.22-1.541.33-2.312 1.542-2.312 1.762 2.092 4.625 5.836 5.175 10.571Z"/>
  <path fill="#E8D5C4" d="M154.193 277.723c.991-3.524 1.762-6.607 2.423-9.14-.33 2.202-.441 4.735-.661 7.598-.11.771-.11 1.542-.33 2.423-.22 1.652-.441 3.304-.881 5.176-6.938 31.494-39.093 51.316-39.093 51.316s-4.625 13.985-10.571 31.935c-.881 2.753-1.762 5.506-2.753 8.369-4.075 12.223-8.48 25.548-12.334 37H74.356c1.982-4.625 4.185-9.69 6.387-14.976 1.211-2.753 2.423-5.616 3.634-8.369 12.003-27.971 25.107-58.695 25.107-58.695s33.697-17.068 43.278-47.902c.22-.55.33-1.211.55-1.762.221-.991.551-1.982.881-2.973Z" opacity=".5"/>
  <path fill="#FFBCBC" d="M156.836 267.262c-.11.44-.22.77-.33 1.211-.551 2.643-1.432 5.726-2.423 9.25-.33.991-.55 1.982-.881 3.083-.11.441-.33.992-.44 1.542-9.581 30.834-43.278 47.902-43.278 47.902s-13.104 30.834-25.217 58.915c-1.211 2.863-2.423 5.726-3.634 8.369-2.313 5.286-4.405 10.351-6.387 14.866H12.689c7.378-11.342 16.408-25.217 25.327-39.313 1.983-3.083 3.855-6.166 5.837-9.25 17.509-28.081 32.705-54.62 31.604-59.795-.44-2.092-.88-5.396-1.321-9.36-.11-1.432-.33-2.864-.44-4.405-.882-9.14-1.652-20.483-2.313-29.843-.11-2.092-.33-4.184-.44-6.056-.441-6.277-.772-10.792-1.102-11.783-.44-1.542-.33-5.286.11-9.911.11-1.211.22-2.423.33-3.744a219.833 219.833 0 0 1 2.093-13.545c1.872-9.47 4.515-10.241 4.515-10.241 4.074 1.541 5.946 8.259 5.726 17.068v1.652c-.11 2.753-.44 5.616-.991 8.59-.88 5.285-.77 9.36-.33 12.663a29.58 29.58 0 0 0 1.431 5.617c.66 1.872 1.322 3.303 1.542 4.294.77 3.194 1.542-3.964 1.542-3.964-.11-1.101-.22-2.092-.33-3.083-.331-2.313-.551-4.295-.662-6.167-.88-9.581 0-13.985 3.855-21.914.22-.441.44-.771.66-1.211.33-.551.551-1.212.881-1.762 6.498-12.334 13.435-15.307 13.435-15.307 1.872 1.982 2.202 5.065 1.982 8.149 0 .33 0 .55-.11.881-.44 4.074-1.762 7.708-1.762 7.708l6.057-6.387 1.211-1.321.22-.22c14.867-12.334 8.7.33 5.176 11.672-3.524 11.343 1.101 29.843 1.101 29.843s4.295-57.813 11.343-57.483c7.047.33 3.964 22.685 5.726 47.572v.441c.11.881.11 1.761.11 2.532.991 23.566-5.616 43.057 8.699 24.007 6.057-8.149 10.352-12.554 12.554-12.774 2.313-.331 2.643 3.303.881 11.012Z"/>
  <path fill="#F38BA0" d="M103.868 218.258s-5.506 9.911-5.506 16.739c0 6.827 2.753 21.803 2.753 21.803s-4.735-21.033 2.753-38.542Z"/>
  <path fill="#FCCACA" d="M156.836 267.262c-1.321.33-3.193-.33-4.405-1.542-1.651-1.541 1.983-7.268 3.634-9.58 2.203-.22 2.533 3.414.771 11.122Z"/>
  <path fill="#E8D5C4" d="M429.164 47.242a23.427 23.427 0 0 0-11.893-6.387c-1.322-.22-2.643-.44-3.965-.44-4.515-.11-9.03 1.1-12.994 3.744-1.321.88-2.643 1.872-3.744 2.973l-3.964 3.964c-2.643.661-5.066 1.652-7.489 2.863a41.995 41.995 0 0 0-19.601 19.932c-.991 2.203-1.872 4.405-2.533 6.828l-3.083 3.083c-2.643 2.643-4.625 5.836-5.616 9.25-.881 2.643-1.212 5.396-1.101 8.259.11 1.982.44 4.075 1.101 6.057 1.101 3.303 2.973 6.497 5.616 9.14l22.795 22.795 3.414 3.413 10.461 10.462c9.03 9.03 23.676 9.03 32.706 0l5.616-5.616V52.968l-5.726-5.726Z" opacity=".5"/>
  <path fill="#DDB99C" d="M434.89 65.191c.11.11.11.22.11.44 0-.22-.11-.33-.11-.44v68.605l-9.801 9.801c-9.03 9.03-23.676 9.03-32.705 0l-10.462-10.462-3.414-3.413-22.795-22.795c-2.642-2.643-4.514-5.837-5.616-9.14-.66-1.982-.991-3.965-1.101-6.057-.33-6.277 1.982-12.664 6.717-17.399l3.084-3.083 4.625-4.625 20.482-20.483 4.625-4.625 3.965-3.964c4.625-4.625 10.681-6.938 16.738-6.717 1.321 0 2.643.11 3.964.44 4.405.881 8.59 2.973 11.893 6.387l9.801 9.8v17.73Z"/>
  <path fill="#CC9F90" d="M434.394 65.23c.11.11.11.22.11.44 0-.22-.11-.33-.11-.44v57.592c-7.158 5.396-15.307 8.479-21.474 9.03-10.461.771-19.271-2.753-25.438-6.277-1.541-.881-2.973-1.762-4.184-2.643-3.083-2.202-4.845-3.964-4.845-3.964l1.982-2.092 50.875-56.712 1.872-2.093c.441.44.771.771 1.102 1.212v5.946h.11Zm-13.435-15.528a40.55 40.55 0 0 0-7.268-.66c-24.226 0-43.938 19.711-43.938 43.938 0 7.047 1.652 13.765 4.625 19.711-8.92-7.158-14.646-18.17-14.646-30.613 0-21.694 17.619-39.313 39.313-39.313a39.795 39.795 0 0 1 21.914 6.937Z"/>
  <path fill="#BA8C8C" d="M433.513 63.467c.33.55.66 1.101.881 1.762v33.917c-6.277 13.215-19.822 22.245-35.459 22.245h-2.643c-.44 0-.991-.111-1.432-.111-.55 0-1.101-.11-1.651-.22l-1.982-.33c-.441-.11-.771-.11-1.102-.22l-1.321-.331c-.991-.22-1.872-.55-2.753-.881-.11 0-.331-.11-.441-.11-.55-.22-.991-.33-1.541-.551-.551-.22-.991-.44-1.542-.66-.441-.22-.991-.441-1.432-.661-.22-.11-.55-.33-.77-.44a34.937 34.937 0 0 1-5.947-3.965c-2.973-5.946-4.625-12.664-4.625-19.711 0-10.572 3.744-20.262 9.911-27.75 1.431-1.763 3.083-3.524 4.845-5.066 7.709-6.938 17.95-11.122 29.182-11.122 2.423 0 4.955.22 7.268.66.661.44 1.321.881 1.872 1.322.551.44 1.101.88 1.762 1.431.11 0 .11.11.22.22.551.441 1.101.992 1.542 1.432l1.652 1.652c.55.55.991 1.211 1.541 1.762.441.66.991 1.211 1.432 1.872.11.11.22.33.33.44.331.441.661.882.881 1.432l.991 1.652c.11 0 .221.22.331.33Z"/>
  <path fill="#fff" d="M403.67 40.342c-1.542-.11-3.083-.22-4.735-.22-3.744 0-7.488.55-11.012 1.431-14.316 3.854-25.658 15.197-29.622 29.623-.992 3.523-1.432 7.267-1.432 11.011v.441c0 2.202.22 4.295.551 6.387 2.092 12.884 10.021 23.676 20.922 29.843 1.873 1.101 3.855 1.982 5.837 2.753 1.652.66 3.303 1.101 5.065 1.541 3.084.771 6.277 1.101 9.581 1.101 14.866 0 27.97-7.708 35.459-19.381v-5.726c-6.277 13.214-19.822 22.244-35.459 22.244h-2.643c-.441 0-.991-.11-1.432-.11-.55 0-1.101-.11-1.651-.22l-1.983-.33c-.44-.111-.77-.111-1.101-.221l-1.321-.33c-.991-.22-1.872-.551-2.753-.881-.11 0-.331-.11-.441-.11-.55-.11-.991-.33-1.541-.551-.551-.22-.991-.44-1.542-.66-.551-.221-.991-.441-1.432-.661-.33-.11-.55-.22-.77-.441a34.777 34.777 0 0 1-9.14-6.827 39.167 39.167 0 0 1-2.864-3.194 40.682 40.682 0 0 1-2.532-3.523 16.694 16.694 0 0 1-1.102-1.872c-.33-.661-.66-1.322-.991-1.873-.33-.66-.66-1.32-.881-1.982-.33-.66-.55-1.321-.77-1.982-.331-.77-.551-1.541-.771-2.312-.221-.55-.331-1.212-.441-1.762-.22-.881-.33-1.762-.55-2.643-.11-.44-.111-.771-.111-1.212-.11-.33-.11-.77-.11-1.1-.11-.661-.11-1.212-.11-1.873 0-.77-.11-1.541-.11-2.312 0-.881 0-1.762.11-2.643.331-4.625 1.432-8.92 3.084-12.994 3.964-9.14 11.232-16.518 20.482-20.483 3.854-1.651 8.039-2.753 12.554-3.083.991-.11 2.092-.11 3.083-.11h2.423c.55 0 1.101.11 1.541.11.661 0 1.322.11 1.983.22 1.101.11 2.202.33 3.193.66.33.111.661.221.991.221.441.11.991.22 1.432.44.66.22 1.211.441 1.872.661.55.22 1.211.44 1.762.661a30.264 30.264 0 0 1 4.625 2.313c.33.11.55.33.881.55a30.282 30.282 0 0 1 3.083 2.093c.551.44 1.101.88 1.762 1.431.11 0 .11.11.22.22.551.44 1.101.991 1.542 1.432l1.652 1.652c.55.55 1.101 1.211 1.541 1.762.441.66.991 1.21 1.432 1.872.11.11.22.33.33.44.331.44.661.881.881 1.432l.991 1.651c.11.11.221.33.221.441.33.55.55 1.101.881 1.652v-5.727c-.331-.55-.771-1.1-1.102-1.651-6.717-9.36-17.399-15.968-29.512-17.29Z"/>
  <path fill="#fff" d="M388.474 100.247a2.726 2.726 0 0 1-2.753 2.753 2.726 2.726 0 0 1-2.753-2.753 2.726 2.726 0 0 1 2.753-2.753c1.541.11 2.753 1.322 2.753 2.753Zm-8.48.001c0 .88-.771 1.651-1.652 1.651-.881 0-1.651-.771-1.651-1.651 0-.882.77-1.652 1.651-1.652.881.11 1.652.77 1.652 1.652Zm3.414-4.626c-1.321.66-2.973.22-3.634-1.101s-.22-2.973 1.101-3.634c1.322-.66 2.973-.22 3.634 1.101.661 1.322.22 2.974-1.101 3.634Z"/>
  <path fill="#E8D5C4" d="m421.125 314.394-30.063-83.581c-1.432-4.075-5.947-6.277-10.131-4.736l-42.837 15.417c-4.074 1.432-4.625-3.414-3.193.661l28.411 92.941c1.431 4.075 5.946 6.277 10.131 4.736l42.837-15.417c4.184-1.432 6.276-5.947 4.845-10.021Z" opacity=".5"/>
  <path fill="#DBB595" d="m418.041 315.054-42.836 15.417c-4.075 1.432-8.59-.661-10.131-4.735l-30.063-83.581c-1.432-4.075.66-8.59 4.735-10.131l42.837-15.417c4.074-1.432 8.589.66 10.131 4.735l30.063 83.581c1.431 4.075-.661 8.59-4.736 10.131Z"/>
  <path fill="#fff" d="m390.48 221.843-53.568 19.277 30.352 84.34 53.567-19.277-30.351-84.34Z"/>
  <path fill="#E5C3A3" d="m372.393 223.666-21.033 7.569.522 1.451 21.033-7.569-.522-1.451Z"/>
</svg>
